<svg width="345" height="53" viewBox="0 0 345 53" fill="none" xmlns="http://www.w3.org/2000/svg">
<path d="M8.904 52.448C5.96 52.448 3.848 51.808 2.568 50.528C1.288 49.2053 0.605334 47.0293 0.52 44C0.306667 32.2667 0.306667 20.5973 0.52 8.992C0.605334 5.87733 1.288 3.65866 2.568 2.336C3.848 1.01333 5.96 0.351997 8.904 0.351997C11.72 0.351997 13.768 1.01333 15.048 2.336C16.328 3.616 17.032 5.74933 17.16 8.736C17.288 12.0213 17.288 15.2853 17.16 18.528H12.936C13.064 15.072 13.064 11.5947 12.936 8.096C12.808 5.36533 11.464 4 8.904 4C6.25867 4 4.89333 5.36533 4.808 8.096C4.50933 20.2987 4.50933 32.48 4.808 44.64C4.808 46.0907 5.128 47.1573 5.768 47.84C6.45067 48.48 7.496 48.8 8.904 48.8C11.72 48.8 13.1707 47.4133 13.256 44.64C13.3413 41.184 13.3413 37.7067 13.256 34.208H8.968V30.432H17.416C17.4587 32.096 17.48 34.0373 17.48 36.256C17.48 38.432 17.4587 41.0133 17.416 44C17.288 47.0293 16.5627 49.2053 15.24 50.528C13.96 51.808 11.848 52.448 8.904 52.448ZM28.9155 52.448C26.8675 52.448 25.3102 51.872 24.2435 50.72C23.2195 49.5253 22.7075 47.5627 22.7075 44.832V13.6H26.9955V45.152C26.9955 46.56 27.2515 47.584 27.7635 48.224C28.2755 48.8213 29.1075 49.12 30.2595 49.12C31.3688 49.12 32.3715 48.7787 33.2675 48.096C34.2062 47.4133 34.8888 46.4533 35.3155 45.216V13.6H39.5395V52H35.3155V48.608H34.4835C33.2462 51.168 31.3902 52.448 28.9155 52.448ZM58.3035 38.816H62.3995C62.4422 39.7973 62.4635 40.8213 62.4635 41.888C62.5062 42.912 62.5062 43.8507 62.4635 44.704C62.3355 47.4347 61.6742 49.4187 60.4795 50.656C59.3275 51.8507 57.3435 52.448 54.5275 52.448C51.6262 52.448 49.5355 51.8507 48.2555 50.656C46.9755 49.4187 46.2928 47.4347 46.2075 44.704C46.1222 42.4 46.0582 39.8613 46.0155 37.088C46.0155 34.272 46.0155 31.4773 46.0155 28.704C46.0582 25.9307 46.1222 23.3707 46.2075 21.024C46.3355 18.208 47.0395 16.2027 48.3195 15.008C49.5995 13.7707 51.6475 13.152 54.4635 13.152C57.1942 13.152 59.1782 13.7493 60.4155 14.944C61.6528 16.1387 62.3355 18.1227 62.4635 20.896C62.5062 21.8773 62.5275 23.5413 62.5275 25.888C62.5702 28.192 62.5275 30.7947 62.3995 33.696H50.3675C50.3675 35.488 50.3675 37.3013 50.3675 39.136C50.4102 40.928 50.4528 42.8907 50.4955 45.024C50.4955 46.56 50.7942 47.6267 51.3915 48.224C52.0315 48.7787 53.0342 49.056 54.3995 49.056C55.7648 49.056 56.7248 48.7787 57.2795 48.224C57.8768 47.6267 58.2182 46.56 58.3035 45.024C58.3462 43.4453 58.3462 41.376 58.3035 38.816ZM54.4635 16.544C53.0555 16.544 52.0315 16.864 51.3915 17.504C50.7942 18.1013 50.4955 19.104 50.4955 20.512C50.4528 22.3893 50.4102 24.1173 50.3675 25.696C50.3675 27.2747 50.3675 28.832 50.3675 30.368H58.3675C58.3675 28.1067 58.3675 26.1227 58.3675 24.416C58.3675 22.6667 58.3462 21.3653 58.3035 20.512C58.2182 19.104 57.8768 18.1013 57.2795 17.504C56.6822 16.864 55.7435 16.544 54.4635 16.544ZM75.752 52.448C72.9787 52.448 71.0373 51.8507 69.928 50.656C68.8187 49.4187 68.2213 47.4133 68.136 44.64C68.0507 42.8053 68.072 40.864 68.2 38.816H71.976C71.9333 40.096 71.912 41.248 71.912 42.272C71.912 43.296 71.912 44.2133 71.912 45.024C71.9547 46.56 72.2533 47.6267 72.808 48.224C73.4053 48.7787 74.3867 49.056 75.752 49.056C77.2027 49.056 78.2267 48.7787 78.824 48.224C79.4213 47.6267 79.7413 46.56 79.784 45.024C79.8267 44.256 79.848 43.4667 79.848 42.656C79.848 41.8453 79.848 41.0987 79.848 40.416C79.8053 38.8373 79.6133 37.6427 79.272 36.832C78.9307 35.9787 78.2053 35.36 77.096 34.976L74.088 33.952C71.8693 33.2267 70.312 32.2027 69.416 30.88C68.5627 29.5573 68.1147 27.488 68.072 24.672C68.0293 24.032 68.008 23.4347 68.008 22.88C68.0507 22.2827 68.072 21.664 68.072 21.024C68.1147 18.208 68.712 16.2027 69.864 15.008C71.016 13.7707 73.064 13.152 76.008 13.152C78.7813 13.152 80.7227 13.7493 81.832 14.944C82.9413 16.1387 83.5387 18.1227 83.624 20.896C83.624 21.7067 83.624 22.6453 83.624 23.712C83.624 24.736 83.6027 25.7387 83.56 26.72H79.592C79.6773 25.6533 79.6987 24.544 79.656 23.392C79.656 22.24 79.656 21.28 79.656 20.512C79.6133 18.976 79.336 17.9307 78.824 17.376C78.312 16.8213 77.3733 16.544 76.008 16.544C74.6 16.544 73.6187 16.8213 73.064 17.376C72.552 17.9307 72.2747 18.976 72.232 20.512C72.232 21.2373 72.2107 21.8987 72.168 22.496C72.168 23.0933 72.168 23.712 72.168 24.352C72.2107 25.9733 72.36 27.2747 72.616 28.256C72.9147 29.2373 73.704 29.9413 74.984 30.368L77.8 31.2C79.848 31.84 81.3627 32.8427 82.344 34.208C83.368 35.5307 83.88 37.536 83.88 40.224C83.88 40.9493 83.8587 41.7173 83.816 42.528C83.816 43.296 83.7947 44.0427 83.752 44.768C83.6667 47.4987 83.0267 49.4613 81.832 50.656C80.68 51.8507 78.6533 52.448 75.752 52.448ZM96.002 52.448C93.2287 52.448 91.2873 51.8507 90.178 50.656C89.0687 49.4187 88.4713 47.4133 88.386 44.64C88.3007 42.8053 88.322 40.864 88.45 38.816H92.226C92.1833 40.096 92.162 41.248 92.162 42.272C92.162 43.296 92.162 44.2133 92.162 45.024C92.2047 46.56 92.5033 47.6267 93.058 48.224C93.6553 48.7787 94.6367 49.056 96.002 49.056C97.4527 49.056 98.4767 48.7787 99.074 48.224C99.6713 47.6267 99.9913 46.56 100.034 45.024C100.077 44.256 100.098 43.4667 100.098 42.656C100.098 41.8453 100.098 41.0987 100.098 40.416C100.055 38.8373 99.8633 37.6427 99.522 36.832C99.1807 35.9787 98.4553 35.36 97.346 34.976L94.338 33.952C92.1193 33.2267 90.562 32.2027 89.666 30.88C88.8127 29.5573 88.3647 27.488 88.322 24.672C88.2793 24.032 88.258 23.4347 88.258 22.88C88.3007 22.2827 88.322 21.664 88.322 21.024C88.3647 18.208 88.962 16.2027 90.114 15.008C91.266 13.7707 93.314 13.152 96.258 13.152C99.0313 13.152 100.973 13.7493 102.082 14.944C103.191 16.1387 103.789 18.1227 103.874 20.896C103.874 21.7067 103.874 22.6453 103.874 23.712C103.874 24.736 103.853 25.7387 103.81 26.72H99.842C99.9273 25.6533 99.9487 24.544 99.906 23.392C99.906 22.24 99.906 21.28 99.906 20.512C99.8633 18.976 99.586 17.9307 99.074 17.376C98.562 16.8213 97.6233 16.544 96.258 16.544C94.85 16.544 93.8687 16.8213 93.314 17.376C92.802 17.9307 92.5247 18.976 92.482 20.512C92.482 21.2373 92.4607 21.8987 92.418 22.496C92.418 23.0933 92.418 23.712 92.418 24.352C92.4607 25.9733 92.61 27.2747 92.866 28.256C93.1647 29.2373 93.954 29.9413 95.234 30.368L98.05 31.2C100.098 31.84 101.613 32.8427 102.594 34.208C103.618 35.5307 104.13 37.536 104.13 40.224C104.13 40.9493 104.109 41.7173 104.066 42.528C104.066 43.296 104.045 44.0427 104.002 44.768C103.917 47.4987 103.277 49.4613 102.082 50.656C100.93 51.8507 98.9033 52.448 96.002 52.448ZM128.255 52V4.64H121.727V0.799999H139.007V4.64H132.543V52H128.255ZM142.892 52V0.799999H147.116V16.992H148.076C148.673 15.712 149.377 14.752 150.188 14.112C151.041 13.472 152.193 13.152 153.644 13.152C155.649 13.152 157.164 13.7493 158.188 14.944C159.212 16.096 159.724 18.0373 159.724 20.768V52H155.5V20.448C155.457 19.04 155.18 18.0373 154.668 17.44C154.156 16.8 153.324 16.48 152.172 16.48C149.612 16.48 147.927 17.7813 147.116 20.384V52H142.892ZM177.866 38.816H181.962C182.005 39.7973 182.026 40.8213 182.026 41.888C182.069 42.912 182.069 43.8507 182.026 44.704C181.898 47.4347 181.237 49.4187 180.042 50.656C178.89 51.8507 176.906 52.448 174.09 52.448C171.189 52.448 169.098 51.8507 167.818 50.656C166.538 49.4187 165.855 47.4347 165.77 44.704C165.685 42.4 165.621 39.8613 165.578 37.088C165.578 34.272 165.578 31.4773 165.578 28.704C165.621 25.9307 165.685 23.3707 165.77 21.024C165.898 18.208 166.602 16.2027 167.882 15.008C169.162 13.7707 171.21 13.152 174.026 13.152C176.757 13.152 178.741 13.7493 179.978 14.944C181.215 16.1387 181.898 18.1227 182.026 20.896C182.069 21.8773 182.09 23.5413 182.09 25.888C182.133 28.192 182.09 30.7947 181.962 33.696H169.93C169.93 35.488 169.93 37.3013 169.93 39.136C169.973 40.928 170.015 42.8907 170.058 45.024C170.058 46.56 170.357 47.6267 170.954 48.224C171.594 48.7787 172.597 49.056 173.962 49.056C175.327 49.056 176.287 48.7787 176.842 48.224C177.439 47.6267 177.781 46.56 177.866 45.024C177.909 43.4453 177.909 41.376 177.866 38.816ZM174.026 16.544C172.618 16.544 171.594 16.864 170.954 17.504C170.357 18.1013 170.058 19.104 170.058 20.512C170.015 22.3893 169.973 24.1173 169.93 25.696C169.93 27.2747 169.93 28.832 169.93 30.368H177.93C177.93 28.1067 177.93 26.1227 177.93 24.416C177.93 22.6667 177.909 21.3653 177.866 20.512C177.781 19.104 177.439 18.1013 176.842 17.504C176.245 16.864 175.306 16.544 174.026 16.544ZM201.455 52V0.799999H209.071L211.823 16.992L216.623 48.16H217.967L217.327 18.784L217.007 0.799999H221.167V52H213.359L210.351 33.632L206.062 4.64H204.719L205.295 32.672L205.615 52H201.455ZM234.291 52.448C232.243 52.448 230.685 51.872 229.619 50.72C228.595 49.5253 228.083 47.5627 228.083 44.832V13.6H232.371V45.152C232.371 46.56 232.627 47.584 233.139 48.224C233.651 48.8213 234.483 49.12 235.635 49.12C236.744 49.12 237.747 48.7787 238.643 48.096C239.581 47.4133 240.264 46.4533 240.691 45.216V13.6H244.915V52H240.691V48.608H239.859C238.621 51.168 236.765 52.448 234.291 52.448ZM251.705 52V13.6H255.929V16.992H256.76C257.4 15.712 258.126 14.752 258.937 14.112C259.79 13.472 260.963 13.152 262.457 13.152C263.993 13.152 265.209 13.472 266.105 14.112C267.043 14.752 267.705 15.7973 268.089 17.248H268.921C269.561 15.9253 270.35 14.9227 271.289 14.24C272.227 13.5147 273.443 13.152 274.937 13.152C276.942 13.152 278.435 13.7493 279.417 14.944C280.398 16.096 280.91 18.0373 280.953 20.768L281.017 52H276.793L276.729 20.448C276.686 19.04 276.409 18.0373 275.897 17.44C275.427 16.8 274.617 16.48 273.465 16.48C271.075 16.48 269.433 17.8027 268.537 20.448V52H264.312L264.249 20.448C264.249 19.04 263.993 18.0373 263.481 17.44C262.969 16.8 262.137 16.48 260.985 16.48C258.425 16.48 256.739 17.7813 255.929 20.384V52H251.705ZM304.724 20.768C304.767 24.8213 304.788 28.9387 304.788 33.12C304.788 37.2587 304.767 41.1627 304.724 44.832C304.596 47.5627 304.02 49.5253 302.996 50.72C301.972 51.872 300.457 52.448 298.452 52.448C296.959 52.448 295.807 52.128 294.996 51.488C294.185 50.848 293.46 49.888 292.82 48.608H292.116V52H287.892V0.799999H292.116V16.992H293.076C293.673 15.712 294.377 14.752 295.188 14.112C296.041 13.472 297.193 13.152 298.644 13.152C300.649 13.152 302.121 13.7493 303.06 14.944C304.041 16.096 304.596 18.0373 304.724 20.768ZM300.436 45.152C300.692 37.5147 300.692 29.28 300.436 20.448C300.393 19.04 300.116 18.0373 299.604 17.44C299.135 16.8 298.324 16.48 297.172 16.48C294.612 16.48 292.927 17.7813 292.116 20.384V45.216C292.927 47.8187 294.612 49.12 297.172 49.12C298.324 49.12 299.135 48.8213 299.604 48.224C300.116 47.584 300.393 46.56 300.436 45.152ZM322.679 38.816H326.775C326.817 39.7973 326.839 40.8213 326.839 41.888C326.881 42.912 326.881 43.8507 326.839 44.704C326.711 47.4347 326.049 49.4187 324.855 50.656C323.703 51.8507 321.719 52.448 318.903 52.448C316.001 52.448 313.911 51.8507 312.631 50.656C311.351 49.4187 310.668 47.4347 310.583 44.704C310.497 42.4 310.433 39.8613 310.391 37.088C310.391 34.272 310.391 31.4773 310.391 28.704C310.433 25.9307 310.497 23.3707 310.583 21.024C310.711 18.208 311.415 16.2027 312.695 15.008C313.975 13.7707 316.023 13.152 318.839 13.152C321.569 13.152 323.553 13.7493 324.791 14.944C326.028 16.1387 326.711 18.1227 326.839 20.896C326.881 21.8773 326.903 23.5413 326.903 25.888C326.945 28.192 326.903 30.7947 326.775 33.696H314.743C314.743 35.488 314.743 37.3013 314.743 39.136C314.785 40.928 314.828 42.8907 314.871 45.024C314.871 46.56 315.169 47.6267 315.767 48.224C316.407 48.7787 317.409 49.056 318.775 49.056C320.14 49.056 321.1 48.7787 321.655 48.224C322.252 47.6267 322.593 46.56 322.679 45.024C322.721 43.4453 322.721 41.376 322.679 38.816ZM318.839 16.544C317.431 16.544 316.407 16.864 315.767 17.504C315.169 18.1013 314.871 19.104 314.871 20.512C314.828 22.3893 314.785 24.1173 314.743 25.696C314.743 27.2747 314.743 28.832 314.743 30.368H322.743C322.743 28.1067 322.743 26.1227 322.743 24.416C322.743 22.6667 322.721 21.3653 322.679 20.512C322.593 19.104 322.252 18.1013 321.655 17.504C321.057 16.864 320.119 16.544 318.839 16.544ZM332.767 52V13.6H336.991V17.248H337.887C338.228 15.84 338.783 14.88 339.551 14.368C340.362 13.8133 341.428 13.536 342.751 13.536C343.562 13.536 344.223 13.5573 344.735 13.6V16.992H342.815C340.98 16.992 339.636 17.3333 338.783 18.016C337.93 18.656 337.332 19.7227 336.991 21.216V52H332.767Z" fill="white"/>
</svg>
